<?xml version="1.0" encoding="UTF-8"?>
<svg version="1.1" xmlns="http://www.w3.org/2000/svg" width="1259" height="332">
<path d="M0 0 C415.47 0 830.94 0 1259 0 C1259 109.56 1259 219.12 1259 332 C843.53 332 428.06 332 0 332 C0 222.44 0 112.88 0 0 Z " fill="#FEFEFE" transform="translate(0,0)"/>
<path d="M0 0 C13.3468654 10.2108187 22.15358433 23.6521041 25.53125 40.21875 C27.09866729 52.86258284 26.96440953 65.81903201 23 78 C22.6596875 79.08539063 22.319375 80.17078125 21.96875 81.2890625 C16.57417685 96.85313504 5.78183731 108.74893861 -9 116 C-26.05276074 122.74780545 -45.86426847 123.74264093 -63 116.78125 C-77.42186891 110.15896326 -89.17281605 98.94685749 -95 84 C-102.32928094 62.66890278 -102.34564769 41.33037747 -92.875 20.6875 C-85.03689992 6.04526198 -72.49954495 -3.42267048 -57 -9 C-37.19976728 -14.71919072 -17.14361976 -11.04423789 0 0 Z " fill="#FDFDFD" transform="translate(1139,103)"/>
<path d="M0 0 C1.86167752 1.50731683 3.6964749 3.04856591 5.5 4.625 C6.37011719 5.38425781 7.24023438 6.14351562 8.13671875 6.92578125 C23.69527191 21.48363114 32.97869597 42.29757018 33.78125 63.53515625 C34.33600548 88.9691541 28.93250386 112.54866496 11.1472168 131.5144043 C-4.16709433 147.089071 -26.16665142 156.74034295 -48.04980469 156.9543457 C-49.04399414 156.94878662 -50.03818359 156.94322754 -51.0625 156.9375 C-52.10954102 156.93258545 -53.15658203 156.9276709 -54.23535156 156.92260742 C-67.87188557 156.71912379 -80.16164757 154.73292198 -92.5 148.625 C-93.39847656 148.20605469 -94.29695313 147.78710938 -95.22265625 147.35546875 C-112.85155095 138.55370406 -125.30500851 123.80300031 -132.5 105.625 C-132.87886353 104.68575684 -132.87886353 104.68575684 -133.26538086 103.72753906 C-141.8832409 81.7523958 -140.68166244 55.89049086 -132.125 34.125 C-127.62580854 24.2267788 -122.00369213 16.47399477 -114.5 8.625 C-113.94699219 7.99722656 -113.39398437 7.36945313 -112.82421875 6.72265625 C-104.83935049 -2.01512762 -93.54990404 -7.55108 -82.5 -11.375 C-81.39140625 -11.76816406 -80.2828125 -12.16132812 -79.140625 -12.56640625 C-52.9446306 -20.49705012 -22.21365664 -16.08280147 0 0 Z M-99.0625 22.859375 C-110.77053209 36.14348834 -115.9245768 52.46164019 -115.8125 69.9375 C-115.80758545 70.85394287 -115.8026709 71.77038574 -115.79760742 72.71459961 C-115.53255226 88.13537291 -110.76696108 102.26104933 -101.5 114.625 C-101.08492187 115.21667969 -100.66984375 115.80835938 -100.2421875 116.41796875 C-92.35474813 126.73776217 -79.19537058 133.47353797 -66.75390625 136.234375 C-54.73558976 137.67715009 -41.98083663 137.66878626 -30.5 133.625 C-29.66855469 133.36976563 -28.83710937 133.11453125 -27.98046875 132.8515625 C-14.70932236 128.2954839 -3.53803119 117.92196901 2.8125 105.5625 C3.72998 103.59327464 4.6280869 101.61482049 5.5 99.625 C5.81839844 98.9134375 6.13679688 98.201875 6.46484375 97.46875 C13.25781995 80.97635008 12.50548792 60.2200465 6.5 43.625 C-1.06008337 25.95869119 -14.17717322 14.55740617 -31.62060547 7.33227539 C-54.80038057 -1.39100448 -81.68039322 5.99459283 -99.0625 22.859375 Z " fill="#111E24" transform="translate(1154.5,87.375)"/>
<path d="M0 0 C1.8203125 0.16015625 1.8203125 0.16015625 4 1 C5.4921875 3.37109375 5.4921875 3.37109375 6.875 6.4375 C9.52036261 12.2346232 12.68618342 17.56956913 16 23 C18.2390669 26.72329184 20.46431325 30.4547102 22.6875 34.1875 C23.53924805 35.60579102 23.53924805 35.60579102 24.40820312 37.05273438 C27.31672546 41.94573503 29.83459282 46.74115399 32 52 C32.515625 52.515625 33.03125 53.03125 33.5625 53.5625 C35.69137587 55.69137587 36.17855615 58.15654051 37 61 C37.66 61 38.32 61 39 61 C40.46484375 63.68554688 40.46484375 63.68554688 41.9296875 66.37109375 C42.91410024 68.16618315 42.91410024 68.16618315 45 69 C45.75770848 70.71308003 46.50952244 72.42950771 47.20703125 74.16796875 C48.02270083 76.18312934 48.02270083 76.18312934 49.625 78.5625 C51.21453872 81.38031864 51.62872209 83.80700997 52 87 C53.485 87.495 53.485 87.495 55 88 C55.73046875 89.84765625 55.73046875 89.84765625 56.1875 92.0625 C56.34605469 92.79597656 56.50460938 93.52945313 56.66796875 94.28515625 C56.83232422 95.13400391 56.83232422 95.13400391 57 96 C57.66 96 58.32 96 59 96 C65.31870592 108.41952544 70.3263937 121.14581411 73.421875 134.76953125 C73.78758893 136.9566131 73.78758893 136.9566131 75 138 C75.25431324 141.88906915 75.18523597 145.79111068 75.1875 149.6875 C75.19974609 150.77740234 75.21199219 151.86730469 75.22460938 152.99023438 C75.23450309 158.40869097 75.16192818 162.94814742 73 168 C72.37931641 169.77117187 72.37931641 169.77117187 71.74609375 171.578125 C71.31425781 172.78984375 70.88242188 174.0015625 70.4375 175.25 C70.00308594 176.47203125 69.56867188 177.6940625 69.12109375 178.953125 C68 182 68 182 67 184 C66.34 184 65.68 184 65 184 C64.9175 184.55171875 64.835 185.1034375 64.75 185.671875 C61.10694042 196.98053912 47.46842215 206.75875015 37.52734375 212.32421875 C33.30897261 214.3282954 29.0441299 215.93710338 24.625 217.4375 C23.86388916 217.6967627 23.10277832 217.95602539 22.31860352 218.22314453 C18.08407609 219.58009584 14.50181218 220.29297508 10 220 C11.41314076 216.89526709 13.13493151 214.49194484 15.3125 211.875 C24.76196594 199.84661731 26.34395933 188.2914221 26.1875 173.3125 C26.18685547 172.12849609 26.18621094 170.94449219 26.18554688 169.72460938 C26.1643253 158.61987543 26.1643253 158.61987543 23.0625 148.0625 C21.74775678 145.06808483 20.85845009 142.38071914 20.125 139.171875 C19.06904218 134.76419624 17.16336035 131.10963318 14.9375 127.1875 C11.09466912 120.28400735 11.09466912 120.28400735 10 117 C9.01 116.67 8.02 116.34 7 116 C7 114.68 7 113.36 7 112 C5.515 111.505 5.515 111.505 4 111 C3.2950209 109.34917394 2.63591899 107.67863911 2 106 C0.71410834 104.01019351 -0.62528569 102.05450973 -2 100.125 C-2.80818414 98.97458479 -3.61543913 97.82351642 -4.421875 96.671875 C-4.84275391 96.07310547 -5.26363281 95.47433594 -5.69726562 94.85742188 C-23.23592175 69.85103211 -23.23592175 69.85103211 -23.0625 54.75 C-23.05798828 54.00492188 -23.05347656 53.25984375 -23.04882812 52.4921875 C-23.03709246 50.6614236 -23.0191585 48.83070127 -23 47 C-22.34 47 -21.68 47 -21 47 C-20.78537109 45.92685547 -20.78537109 45.92685547 -20.56640625 44.83203125 C-19.7109375 40.5546875 -18.85546875 36.27734375 -18 32 C-17.34 32 -16.68 32 -16 32 C-15.80664062 31.31292969 -15.61328125 30.62585938 -15.4140625 29.91796875 C-15.15367187 29.01691406 -14.89328125 28.11585937 -14.625 27.1875 C-14.36976563 26.29417969 -14.11453125 25.40085937 -13.8515625 24.48046875 C-13 22 -13 22 -11 19 C-10.34 19 -9.68 19 -9 19 C-8.71125 17.88625 -8.4225 16.7725 -8.125 15.625 C-7 12 -7 12 -5 10 C-3.98470459 7.67328135 -2.98511802 5.3396553 -2 3 C-1.34 2.01 -0.68 1.02 0 0 Z " fill="#2C2B2B" transform="translate(157,40)"/>
<path d="M0 0 C0.66 0 1.32 0 2 0 C2.14695312 1.12535156 2.14695312 1.12535156 2.296875 2.2734375 C2.44640625 3.29695313 2.5959375 4.32046875 2.75 5.375 C2.88921875 6.37273437 3.0284375 7.37046875 3.171875 8.3984375 C5.22744017 17.3382068 9.31573492 24.51762153 14.5 32 C15.11512451 32.90645264 15.73024902 33.81290527 16.36401367 34.74682617 C18.23481957 37.5033346 20.11655311 40.25211853 22 43 C45.33947387 77.20451844 45.33947387 77.20451844 51 97 C51.350625 98.16402344 51.70125 99.32804687 52.0625 100.52734375 C53.39225175 105.94003068 53.32980957 111.32901471 53.3125 116.875 C53.32861328 117.89980469 53.34472656 118.92460937 53.36132812 119.98046875 C53.37035854 134.19434245 48.25169619 145.82980468 38.8671875 156.3828125 C37 158 37 158 34 158 C33.84144531 157.14019531 33.68289062 156.28039062 33.51953125 155.39453125 C30.54256232 140.31231849 25.85102099 127.32360867 14.4375 116.5 C2.25354491 104.81561482 -2.44991479 88.27589466 -4 72 C-5.10546331 93.37229068 1.40837274 109.45547956 14.17578125 126.38671875 C21.87337076 137.4138866 23.40611941 148.86880562 23 162 C10.5127128 163.24872872 -2.4018528 156.55823615 -12 149 C-27.4647505 135.78057816 -37.29555051 120.40630068 -40 100 C-41.27806753 83.63654522 -36.64639229 68.77589236 -30 54 C-29.65727051 53.23236328 -29.31454102 52.46472656 -28.96142578 51.67382812 C-24.20822604 41.12968491 -18.97991396 30.89445358 -13.3125 20.8125 C-12.79034912 19.88115234 -12.26819824 18.94980469 -11.73022461 17.99023438 C-8.19597855 11.80433236 -4.56875557 5.48799246 0 0 Z " fill="#02B309" transform="translate(125,97)"/>
<path d="M0 0 C1.084021 0.00523682 2.16804199 0.01047363 3.28491211 0.01586914 C4.45473633 0.0190918 5.62456055 0.02231445 6.82983398 0.02563477 C8.0615332 0.03401367 9.29323242 0.04239258 10.56225586 0.05102539 C12.41560547 0.05779297 12.41560547 0.05779297 14.30639648 0.06469727 C17.37089703 0.07652931 20.43530307 0.09301366 23.49975586 0.11352539 C38.21474536 32.28147029 52.50089928 64.62796975 66.49975586 97.11352539 C67.22727051 98.80010254 67.22727051 98.80010254 67.96948242 100.52075195 C71.19793075 108.01014088 74.40767357 115.50734848 77.60357666 123.01068115 C78.59509825 125.33724203 79.58821787 127.663118 80.58129883 129.98901367 C82.4423099 134.34989611 84.29672116 138.71354195 86.14730835 143.07885742 C86.87921891 144.80310701 87.61294869 146.52658557 88.34854126 148.24926758 C89.37803094 150.66151784 90.40064357 153.07657283 91.42163086 155.49243164 C91.73349838 156.21922623 92.04536591 156.94602081 92.36668396 157.69483948 C93.61414179 160.66357845 94.49975586 162.85881482 94.49975586 166.11352539 C86.57975586 166.11352539 78.65975586 166.11352539 70.49975586 166.11352539 C69.28154917 163.16952588 68.06335518 160.22552111 66.84521484 157.28149414 C65.76167039 154.66288975 64.6778088 152.04441689 63.59375 149.42602539 C60.95714696 143.05698429 58.32271245 136.68709969 55.69897461 130.31274414 C44.21998072 102.44979781 32.47815576 74.69413144 20.62475586 46.98852539 C20.1677832 45.91916748 19.71081055 44.84980957 19.23999023 43.74804688 C16.72397308 37.88540434 14.12311231 32.07352967 11.41333008 26.29760742 C10.49975586 24.11352539 10.49975586 24.11352539 10.49975586 22.11352539 C9.83975586 22.11352539 9.17975586 22.11352539 8.49975586 22.11352539 C8.37093018 22.62802246 8.24210449 23.14251953 8.109375 23.67260742 C5.84997576 31.91521454 2.42751399 39.61928863 -0.96115112 47.44326782 C-2.88627284 51.89130857 -4.79134018 56.34790921 -6.69555664 60.80493164 C-7.29112617 62.19838051 -7.29112617 62.19838051 -7.89872742 63.61997986 C-12.18608296 73.67811108 -16.31818678 83.79828027 -20.43774414 93.92602539 C-26.69269248 109.29265198 -33.0232742 124.62525551 -39.43774414 139.92602539 C-40.01877396 141.31236679 -40.01877396 141.31236679 -40.61154175 142.72671509 C-42.33685193 146.84185389 -44.06348678 150.95643682 -45.79296875 155.06982422 C-46.05178329 155.68545731 -46.31059784 156.30109039 -46.57725525 156.93537903 C-47.87538651 159.99881772 -49.18962299 163.05540937 -50.50024414 166.11352539 C-58.42024414 166.11352539 -66.34024414 166.11352539 -74.50024414 166.11352539 C-71.12506293 155.98798175 -71.12506293 155.98798175 -69.03930664 151.16430664 C-68.57468018 150.08487793 -68.11005371 149.00544922 -67.63134766 147.89331055 C-67.1343335 146.74910645 -66.63731934 145.60490234 -66.12524414 144.42602539 C-65.5936048 143.19487578 -65.0622807 141.96358999 -64.53125 140.73217773 C-63.13765463 137.50325002 -61.73945646 134.27633754 -60.33990479 131.04998779 C-59.25077577 128.53819044 -58.16389163 126.02542499 -57.07705688 123.51263428 C-54.37999997 117.27718941 -51.67739913 111.04416326 -48.97232056 104.81219482 C-47.03701518 100.35282482 -45.10561176 95.89177893 -43.17602539 91.42993164 C-36.92169919 76.9702118 -30.63091931 62.52736163 -24.26586914 48.1159668 C-22.48201619 44.07465423 -20.70390462 40.03082165 -18.92550659 35.98710632 C-17.18193286 32.02380817 -15.43626169 28.06143578 -13.69024658 24.09921265 C-12.81491262 22.11178406 -11.94035769 20.12401218 -11.06658936 18.13589478 C-9.83572242 15.33580291 -8.60191903 12.5370226 -7.36743164 9.73852539 C-6.80415161 8.45446053 -6.80415161 8.45446053 -6.22949219 7.14445496 C-5.88426514 6.36338882 -5.53903809 5.58232269 -5.18334961 4.77758789 C-4.73014847 3.74819092 -4.73014847 3.74819092 -4.26779175 2.69799805 C-3.05193534 0.18806744 -2.92849198 0.13297029 0 0 Z " fill="#121E24" transform="translate(367.500244140625,74.886474609375)"/>
<path d="M0 0 C8.25 0 16.5 0 25 0 C30.97950853 11.71578281 36.44646297 23.56370151 41.6875 35.625 C42.48331343 37.44789764 43.27946105 39.27064941 44.07592773 41.09326172 C46.39006492 46.3928569 48.69633418 51.69584604 51 57 C51.31126831 57.71639648 51.62253662 58.43279297 51.9432373 59.17089844 C54.85540985 65.87412966 57.75973638 72.58073777 60.66015625 79.2890625 C64.5867245 88.36810314 68.54456597 97.43350841 72.5 106.5 C78.31673221 119.83323921 84.11813396 133.172933 89.890625 146.52539062 C90.37660156 147.64880859 90.86257813 148.77222656 91.36328125 149.9296875 C92.03738037 151.48961426 92.03738037 151.48961426 92.72509766 153.08105469 C94.22019727 156.50415139 95.76055633 159.90541174 97.32495117 163.29736328 C98 165 98 165 98 167 C90.08 167 82.16 167 74 167 C68.37804154 155.75608309 68.37804154 155.75608309 66.78125 151.86328125 C66.22969238 150.52825562 66.22969238 150.52825562 65.66699219 149.16625977 C65.28188477 148.22451904 64.89677734 147.28277832 64.5 146.3125 C63.62021539 144.18211663 62.73998483 142.05191739 61.859375 139.921875 C61.39595703 138.79845703 60.93253906 137.67503906 60.45507812 136.51757812 C57.90688261 130.35744374 55.32876127 124.20988234 52.75 118.0625 C52.47889404 117.41584381 52.20778809 116.76918762 51.9284668 116.10293579 C47.35750732 105.2018033 42.74745563 94.31751195 38.12390137 83.43859863 C33.19171342 71.83243849 28.30024858 60.20964064 23.4375 48.57421875 C20.00284916 40.36325658 16.51870571 32.17521985 13 24 C10.37521337 27.18307763 8.85203765 30.38034362 7.28515625 34.1875 C7.03384445 34.79290619 6.78253265 35.39831238 6.52360535 36.02206421 C5.98198833 37.32837002 5.44291304 38.63573201 4.90612793 39.94403076 C3.45507685 43.48032477 1.98568181 47.0090089 0.51953125 50.5390625 C0.22138519 51.2584903 -0.07676086 51.97791809 -0.38394165 52.71914673 C-3.11307813 59.29697711 -5.92519586 65.8377354 -8.75 72.375 C-22.25212188 103.73805386 -35.06421534 135.40047221 -48 167 C-55.92 167 -63.84 167 -72 167 C-70.2349959 161.7049877 -68.60496704 156.83101232 -66.390625 151.7890625 C-65.89151611 150.64590576 -65.39240723 149.50274902 -64.87817383 148.32495117 C-64.48198349 147.4246669 -64.48198349 147.4246669 -64.07778931 146.50619507 C-62.61562294 143.18334452 -61.1663765 139.85484955 -59.71484375 136.52734375 C-59.25720894 135.47976646 -59.25720894 135.47976646 -58.79032898 134.411026 C-55.73197216 127.4035546 -52.73118886 120.37187976 -49.73101807 113.33935547 C-38.23650768 86.41062544 -26.458008 59.60430057 -14.43823242 32.90600586 C-9.52463041 21.98028065 -4.75328497 10.99640553 0 0 Z " fill="#121E25" transform="translate(733,74)"/>
<path d="M0 0 C7.26 0 14.52 0 22 0 C22 48.51 22 97.02 22 147 C51.7 147 81.4 147 112 147 C112 153.93 112 160.86 112 168 C75.04 168 38.08 168 0 168 C0 112.56 0 57.12 0 0 Z " fill="#17232A" transform="translate(513,74)"/>
<path d="M0 0 C7.26 0 14.52 0 22 0 C22.0695986 16.75990078 22.12306127 33.51974148 22.15543652 50.27975178 C22.17087187 58.06260934 22.19189724 65.84537517 22.22631836 73.62817383 C22.25632322 80.41569734 22.27559919 87.20315439 22.28226548 93.99074239 C22.28615908 97.58107849 22.29523903 101.17122452 22.31719017 104.7614994 C22.34155949 108.7802925 22.34196293 112.7987601 22.34057617 116.81762695 C22.351362 117.99367493 22.36214783 119.1697229 22.3732605 120.38140869 C22.32006801 134.68512311 18.13438269 147.42822255 8.234375 157.9609375 C-4.12151372 169.23676602 -19.57866973 170.93908688 -35.58886719 170.22216797 C-45.62764013 169.29716965 -54.66527017 163.03310297 -61.109375 155.55078125 C-62.79625152 153.40170057 -64.4256764 151.23240099 -66 149 C-64.55898828 145.42071281 -62.85719199 143.92599226 -59.625 141.875 C-58.85414063 141.37742188 -58.08328125 140.87984375 -57.2890625 140.3671875 C-55.23056065 139.13770688 -53.16103487 138.03611261 -51 137 C-50.4225 137.86625 -49.845 138.7325 -49.25 139.625 C-44.34868363 145.35913057 -37.45405491 148.77669529 -29.9765625 149.55078125 C-23.15738445 149.92503864 -16.65872924 149.60186704 -10.83203125 145.69140625 C-5.75414947 141.00329791 -1.42866881 134.33315146 -0.73828697 127.35450268 C-0.72999084 125.92341907 -0.72999084 125.92341907 -0.7215271 124.46342468 C-0.71036362 123.36271133 -0.69920013 122.26199799 -0.68769836 121.12792969 C-0.68553818 119.93031006 -0.68337799 118.73269043 -0.68115234 117.4987793 C-0.67110672 116.23008499 -0.6610611 114.96139069 -0.65071106 113.6542511 C-0.62345178 110.18359626 -0.60827381 106.71298193 -0.59528303 103.2422483 C-0.57963461 99.61203867 -0.55284986 95.98191152 -0.5272522 92.35176086 C-0.48049466 85.48126079 -0.44373595 78.61074515 -0.41057932 71.74016744 C-0.37233653 63.91669106 -0.32293203 56.09329759 -0.27259517 48.26989114 C-0.16932032 32.17998599 -0.08044141 16.0900357 0 0 Z " fill="#152026" transform="translate(932,74)"/>
<path d="M0 0 C0.66 0 1.32 0 2 0 C4.0700503 3.80073548 6.13267553 7.60538366 8.18896484 11.41357422 C8.8872087 12.70434531 9.58735407 13.99408989 10.28955078 15.28271484 C22.80910525 38.2679739 22.80910525 38.2679739 22 50 C19.90333331 56.29000007 16.88646467 60.95835426 11.4375 64.8125 C6.523132 67.20667928 1.39536935 67.89635529 -4 67 C-10.42092435 64.12802106 -14.13058316 60.33662884 -17 54 C-21.45398143 40.63805571 -14.81527262 28.4748248 -9 16.75 C-6.13730232 11.09119466 -3.17308791 5.49188292 0 0 Z " fill="#102027" transform="translate(747,151)"/>
<path d="M0 0 C0.66 0 1.32 0 2 0 C24.29142891 38.58383352 24.29142891 38.58383352 23 51 C21.18638618 57.21654375 17.33162413 61.46110538 12 65 C7.58617719 67.02300212 3.82528073 67.57249093 -1 67 C-6.45691932 64.76173818 -10.79456092 62.05473086 -14 57 C-14.5775 56.154375 -15.155 55.30875 -15.75 54.4375 C-19.66264166 43.67773542 -15.90293039 32.53926641 -11.45288086 22.51489258 C-9.76679945 19.04538546 -8.02565249 15.61197265 -6.25 12.1875 C-5.6409763 10.99462557 -5.03289884 9.80126755 -4.42578125 8.60742188 C-2.95969043 5.73341845 -1.48440757 2.86457303 0 0 Z " fill="#7CB83B" transform="translate(378,151)"/>
<path d="M0 0 C2.86088921 4.29133381 2.59104848 7.96486545 2 13 C0.17525238 19.21725386 -3.66281156 23.45741204 -9 27 C-13.41382281 29.02300212 -17.17471927 29.57249093 -22 29 C-30.3119171 25.3761658 -30.3119171 25.3761658 -32 22 C-30.35 22 -28.7 22 -27 22 C-27 22.66 -27 23.32 -27 24 C-21.83426479 25.72191174 -15.03741832 26.32489294 -9.94921875 24.10546875 C-8.19673124 22.90911458 -8.19673124 22.90911458 -6 21 C-5.34 21 -4.68 21 -4 21 C-2.3749186 18.10511815 -1.70315566 15.80091288 -1.4375 12.5 C-1.24825592 10.24451955 -1.04187373 8.16129141 -0.47265625 5.96875 C0.15563061 3.68920226 0.15563061 3.68920226 0 0 Z " fill="#89B554" transform="translate(399,189)"/>
<path d="M0 0 C0.99 0 1.98 0 3 0 C3.45572917 1.98567708 3.91145833 3.97135417 4.3671875 5.95703125 C4.98007723 8.27742974 4.98007723 8.27742974 7 11 C8.32 11 9.64 11 11 11 C11.33 9.35 11.66 7.7 12 6 C13.32 6.33 14.64 6.66 16 7 C14.57363718 8.84201153 13.13355368 10.67340587 11.6875 12.5 C10.88699219 13.5209375 10.08648437 14.541875 9.26171875 15.59375 C8.51535156 16.3878125 7.76898438 17.181875 7 18 C6.01 18 5.02 18 4 18 C3.79503906 17.03578125 3.59007812 16.0715625 3.37890625 15.078125 C2.97478516 13.18320313 2.97478516 13.18320313 2.5625 11.25 C2.16224609 9.37054688 2.16224609 9.37054688 1.75390625 7.453125 C1.2083765 4.95442915 0.64361188 2.47446899 0 0 Z " fill="#11CF15" transform="translate(155,237)"/>
<path d="M0 0 C0.66 0.33 1.32 0.66 2 1 C1.44570313 2.134375 0.89140625 3.26875 0.3203125 4.4375 C-0.41184985 5.95814489 -1.14359867 7.47898893 -1.875 9 C-2.23980469 9.74378906 -2.60460937 10.48757812 -2.98046875 11.25390625 C-7.15816411 19.98908745 -8.94371735 28.26193107 -8 38 C-6.67014431 41.5047765 -6.67014431 41.5047765 -5 44 C-5 44.66 -5 45.32 -5 46 C-8 45 -8 45 -9.1640625 42.90234375 C-12.33873009 31.88001656 -9.67522703 20.50064867 -6 10 C-5.34 10 -4.68 10 -4 10 C-3.855625 9.4225 -3.71125 8.845 -3.5625 8.25 C-3.04166667 6.16666667 -2.52083333 4.08333333 -2 2 C-1.34 2 -0.68 2 0 2 C0 1.34 0 0.68 0 0 Z " fill="#E8FAD1" transform="translate(370,164)"/>
<path d="M0 0 C1.8203125 0.16015625 1.8203125 0.16015625 4 1 C5.4921875 3.37109375 5.4921875 3.37109375 6.875 6.4375 C9.26090869 11.53190197 11.89783554 16.28426247 14.8984375 21.0390625 C16 23 16 23 16 25 C15.34 25 14.68 25 14 25 C12.15984502 21.7121022 10.32904953 18.41908674 8.5 15.125 C7.97535156 14.18785156 7.45070312 13.25070313 6.91015625 12.28515625 C6.41386719 11.38925781 5.91757813 10.49335937 5.40625 9.5703125 C4.71499023 8.32918701 4.71499023 8.32918701 4.00976562 7.06298828 C3 5 3 5 3 3 C0.03 5.475 0.03 5.475 -3 8 C-3 4.42424104 -1.91159393 2.94704065 0 0 Z " fill="#7D7C7C" transform="translate(157,40)"/>
<path d="M0 0 C0.66 0 1.32 0 2 0 C2 2.31 2 4.62 2 7 C1.23945312 7.24105469 0.47890625 7.48210937 -0.3046875 7.73046875 C-3.41898177 9.19734649 -4.34212964 10.41411785 -6.125 13.3125 C-6.62773438 14.11300781 -7.13046875 14.91351563 -7.6484375 15.73828125 C-8.69280986 17.48594482 -9.72415008 19.24140013 -10.75 21 C-12 23 -12 23 -14 24 C-12.73797473 20.65466054 -11.30648677 17.65303856 -9.43359375 14.609375 C-8.94826172 13.81789063 -8.46292969 13.02640625 -7.96289062 12.2109375 C-7.45951172 11.39882812 -6.95613281 10.58671875 -6.4375 9.75 C-5.93025391 8.92242187 -5.42300781 8.09484375 -4.90039062 7.2421875 C-1.15051972 1.15051972 -1.15051972 1.15051972 0 0 Z " fill="#219723" transform="translate(125,97)"/>
<path d="M0 0 C3.3241781 3.94651281 5.99885554 8.0793235 8.625 12.5 C9.01945313 13.15097656 9.41390625 13.80195312 9.8203125 14.47265625 C11.86918708 17.89898367 13.64945806 21.22429135 15 25 C11.28478285 23.76159428 10.97964934 22.74721533 9.08203125 19.4140625 C8.55029297 18.48335937 8.01855469 17.55265625 7.47070312 16.59375 C6.92349609 15.6140625 6.37628906 14.634375 5.8125 13.625 C4.97428711 12.16707031 4.97428711 12.16707031 4.11914062 10.6796875 C0 3.39700664 0 3.39700664 0 0 Z " fill="#7E7E7E" transform="translate(173,65)"/>
<path d="M0 0 C0.92593178 3.0160866 0.98529832 5.20769372 0.5 8.3125 C-0.43864691 15.97185879 1.30869581 21.38999017 5 28 C4.01 28 3.02 28 2 28 C-2.54518259 20.6140783 -3.0804289 13.96982746 -1.5390625 5.453125 C-1.09017144 3.61852674 -0.5554451 1.80519658 0 0 Z " fill="#8FB95F" transform="translate(363,182)"/>
<path d="M0 0 C0.33 0.66 0.66 1.32 1 2 C0.04370117 4.32250977 0.04370117 4.32250977 -1.45703125 7.19140625 C-1.99263672 8.21814453 -2.52824219 9.24488281 -3.08007812 10.30273438 C-3.65177734 11.37845703 -4.22347656 12.45417969 -4.8125 13.5625 C-5.37259766 14.64208984 -5.93269531 15.72167969 -6.50976562 16.83398438 C-10.73645389 24.86822695 -10.73645389 24.86822695 -13 26 C-13 24.68 -13 23.36 -13 22 C-12.34 22 -11.68 22 -11 22 C-10.80664062 21.31292969 -10.61328125 20.62585938 -10.4140625 19.91796875 C-10.15367187 19.01691406 -9.89328125 18.11585937 -9.625 17.1875 C-9.36976563 16.29417969 -9.11453125 15.40085937 -8.8515625 14.48046875 C-8 12 -8 12 -6 9 C-5.34 9 -4.68 9 -4 9 C-3.71125 7.88625 -3.4225 6.7725 -3.125 5.625 C-2 2 -2 2 0 0 Z " fill="#797878" transform="translate(152,50)"/>
<path d="M0 0 C0.33 0 0.66 0 1 0 C1 3.96 1 7.92 1 12 C-1.64 12 -4.28 12 -7 12 C-7.33 11.01 -7.66 10.02 -8 9 C-6.02 9 -4.04 9 -2 9 C-2.33 6.69 -2.66 4.38 -3 2 C-2.01 2 -1.02 2 0 2 C0 1.34 0 0.68 0 0 Z " fill="#0CD310" transform="translate(147,247)"/>
<path d="M0 0 C0.66 0.33 1.32 0.66 2 1 C0.36986301 7.75342466 0.36986301 7.75342466 -3 10 C-4.37277467 12.37421026 -4.37277467 12.37421026 -5.5625 15.0625 C-7.78751165 19.89375582 -7.78751165 19.89375582 -10 21 C-8.51991304 15.99886406 -6.3681664 11.67084403 -3.875 7.125 C-3.50246094 6.43664062 -3.12992187 5.74828125 -2.74609375 5.0390625 C-1.83500474 3.35705202 -0.91809685 1.67819564 0 0 Z " fill="#159B18" transform="translate(109,123)"/>
<path d="M0 0 C2.25 -0.3125 2.25 -0.3125 5 0 C7.71659284 2.56974999 8.91586186 4.05344589 9.25 7.8125 C9.1675 8.534375 9.085 9.25625 9 10 C6.67527795 7.14693203 5.2491742 4.45925163 4 1 C3.34 1 2.68 1 2 1 C1.731875 1.86625 1.46375 2.7325 1.1875 3.625 C0.02888013 6.91791964 -1.38209839 9.91127875 -3 13 C-4.25541557 9.23375329 -3.37061958 7.62811066 -2 4 C-1.34 4 -0.68 4 0 4 C0 2.68 0 1.36 0 0 Z " fill="#E7F7D2" transform="translate(376,150)"/>
<path d="M0 0 C0.33 0 0.66 0 1 0 C1.42372442 3.08016777 1.80902487 6.16397198 2.1875 9.25 C2.30802734 10.12269531 2.42855469 10.99539062 2.55273438 11.89453125 C2.65263672 12.73886719 2.75253906 13.58320313 2.85546875 14.453125 C2.95496826 15.22817383 3.05446777 16.00322266 3.15698242 16.80175781 C3 19 3 19 0 23 C0 15.41 0 7.82 0 0 Z " fill="#D0EDD1" transform="translate(120,161)"/>
<path d="M0 0 C1.98 0.99 1.98 0.99 4 2 C4 2.99 4 3.98 4 5 C4.66 5 5.32 5 6 5 C9.125 11.5 9.125 11.5 8 16 C5.36 10.72 2.72 5.44 0 0 Z " fill="#E9FAD5" transform="translate(385,160)"/>
<path d="M0 0 C0.33 0 0.66 0 1 0 C0.59683075 6.31631828 -1.71232131 10.64993984 -5 16 C-5.66 16 -6.32 16 -7 16 C-5.35433477 10.31497465 -2.70967216 5.23318364 0 0 Z " fill="#82B052" transform="translate(375,157)"/>
<path d="M0 0 C0.66 0 1.32 0 2 0 C3.76171875 2.5546875 3.76171875 2.5546875 5.6875 5.875 C6.33074219 6.96554688 6.97398437 8.05609375 7.63671875 9.1796875 C8.08660156 10.11039063 8.53648437 11.04109375 9 12 C8.67 12.66 8.34 13.32 8 14 C4.55783328 11.3401439 4.00495326 8.09711714 3 4 C1.35 4.33 -0.3 4.66 -2 5 C-1.34 3.35 -0.68 1.7 0 0 Z " fill="#84AC58" transform="translate(378,151)"/>
<path d="M0 0 C1.8125 0.5625 1.8125 0.5625 4 2 C5.08301035 4.29598193 6.07796291 6.63477442 7 9 C7.5775 9.928125 8.155 10.85625 8.75 11.8125 C9.1625 12.534375 9.575 13.25625 10 14 C9.67 14.66 9.34 15.32 9 16 C6.18368359 13.50506504 4.59044019 10.73437182 2.8125 7.4375 C2.28269531 6.46683594 1.75289062 5.49617188 1.20703125 4.49609375 C0 2 0 2 0 0 Z " fill="#8B8B8B" transform="translate(198,107)"/>
<path d="M0 0 C1.65 0 3.3 0 5 0 C5 0.66 5 1.32 5 2 C5.99 2.33 6.98 2.66 8 3 C8 3.66 8 4.32 8 5 C10.97 5.33 13.94 5.66 17 6 C17 6.33 17 6.66 17 7 C10.54877474 7.68630056 6.26603651 5.72916748 1 2 C0.67 1.34 0.34 0.68 0 0 Z " fill="#9BC36D" transform="translate(367,211)"/>
<path d="M0 0 C0.66 0 1.32 0 2 0 C2.05425226 2.39614126 2.09379027 4.79103853 2.125 7.1875 C2.14175781 7.86103516 2.15851563 8.53457031 2.17578125 9.22851562 C2.21538674 13.28807807 1.80020002 16.34998815 0 20 C-0.66 20 -1.32 20 -2 20 C-1.67 19.113125 -1.34 18.22625 -1 17.3125 C0.65048396 11.68690677 0.15703422 5.80154186 0 0 Z " fill="#EEFCDA" transform="translate(400,189)"/>
<path d="M0 0 C1.875 0.1875 1.875 0.1875 4 1 C5.25 3.5625 5.25 3.5625 6 6 C5.01 5.67 4.02 5.34 3 5 C3 4.34 3 3.68 3 3 C0.03 5.475 0.03 5.475 -3 8 C-3 4.42424104 -1.91159393 2.94704065 0 0 Z " fill="#8D8C8C" transform="translate(157,40)"/>
<path d="M0 0 C2.15164703 3.22747055 2.27245079 4.20505639 2.25 7.9375 C2.25515625 8.79214844 2.2603125 9.64679688 2.265625 10.52734375 C1.98713633 13.11974567 1.30669172 14.76514234 0 17 C-0.33 17 -0.66 17 -1 17 C-1.0272415 15.58344207 -1.04650467 14.16672955 -1.0625 12.75 C-1.07410156 11.96109375 -1.08570313 11.1721875 -1.09765625 10.359375 C-1.0033441 8.08079341 -0.55875238 6.19981253 0 4 C0 2.68 0 1.36 0 0 Z " fill="#96BF6B" transform="translate(399,189)"/>
<path d="M0 0 C3.08089673 2.77280706 4.68775452 5.06326356 6 9 C5.01 9.495 5.01 9.495 4 10 C4 9.34 4 8.68 4 8 C3.01 8 2.02 8 1 8 C-0.35439668 5.29120665 -0.06501451 2.99066732 0 0 Z " fill="#0CA910" transform="translate(161,164)"/>
<path d="M0 0 C6 4 6 4 12 8 C6.77848267 7.59046923 3.70045754 6.81259261 0 3 C0 2.01 0 1.02 0 0 Z " fill="#EDFBD8" transform="translate(365,210)"/>
<path d="M0 0 C2.9156164 3.54039134 5.50127818 7.1626772 8 11 C7.67 11.66 7.34 12.32 7 13 C3.70759125 10.20145256 1.96437054 6.79326725 0 3 C0 2.01 0 1.02 0 0 Z " fill="#878787" transform="translate(173,65)"/>
<path d="M0 0 C0.66 0.33 1.32 0.66 2 1 C0.88671875 2.48828125 0.88671875 2.48828125 -1 4 C-3.91796875 4.29296875 -3.91796875 4.29296875 -7.1875 4.1875 C-8.27417969 4.16042969 -9.36085938 4.13335937 -10.48046875 4.10546875 C-11.31191406 4.07066406 -12.14335937 4.03585938 -13 4 C-13 3.67 -13 3.34 -13 3 C-12.31292969 2.86722656 -11.62585938 2.73445312 -10.91796875 2.59765625 C-9.56638672 2.33275391 -9.56638672 2.33275391 -8.1875 2.0625 C-6.84751953 1.80146484 -6.84751953 1.80146484 -5.48046875 1.53515625 C-2.88602829 1.02258847 -2.88602829 1.02258847 0 0 Z " fill="#EDFBD8" transform="translate(390,215)"/>
<path d="M0 0 C2.15377564 2.62198774 3.40072174 4.64404172 4 8 C2.68 8.33 1.36 8.66 0 9 C0 6.03 0 3.06 0 0 Z " fill="#1DCA22" transform="translate(140,226)"/>
<path d="M0 0 C0.66 0.33 1.32 0.66 2 1 C2.40729228 3.32156597 2.74438677 5.6568787 3 8 C2.01 8.495 2.01 8.495 1 9 C0.63877119 7.68942607 0.28619689 6.37646376 -0.0625 5.0625 C-0.35833984 3.96615234 -0.35833984 3.96615234 -0.66015625 2.84765625 C-0.77230469 2.23792969 -0.88445312 1.62820312 -1 1 C-0.67 0.67 -0.34 0.34 0 0 Z " fill="#0FBB13" transform="translate(88,204)"/>
</svg>
